REM DIRINDEX 1\6,1\2\7,1\2\8,1\2\9,1\3\10,1\3\11,1\4\12,1\4\13,1\4\14,1\5\15,1\5\16,1\5\17
REM DIRNAME cjc041,folder01,folder02,folder03,folder04,folder05,folder06,folder07,folder08,folder09,folder10,folder11,folder12,folder13,folder14,folder15,folder16
TITLE ""
FILE "3Q_j_1077-1092.mp3" MP3
  TRACK 01 AUDIO
    TITLE "12:cjc041_0530"
    INDEX 01 00:00:00
  TRACK 02 AUDIO
    TITLE "0:"
    INDEX 01 00:01:69
  TRACK 03 AUDIO
    TITLE "13:cjc041_0531"
    INDEX 01 00:02:45
  TRACK 04 AUDIO
    TITLE "0:"
    INDEX 01 00:05:36
  TRACK 05 AUDIO
    TITLE "14:cjc041_0532"
    INDEX 01 00:06:18
  TRACK 06 AUDIO
    TITLE "0:"
    INDEX 01 00:09:45
  TRACK 07 AUDIO
    TITLE "12:cjc041_0533"
    INDEX 01 00:10:31
  TRACK 08 AUDIO
    TITLE "0:"
    INDEX 01 00:11:66
  TRACK 09 AUDIO
    TITLE "13:cjc041_0534"
    INDEX 01 00:12:44
  TRACK 10 AUDIO
    TITLE "0:"
    INDEX 01 00:14:66
  TRACK 11 AUDIO
    TITLE "14:cjc041_0535"
    INDEX 01 00:15:44
  TRACK 12 AUDIO
    TITLE "0:"
    INDEX 01 00:18:13
  TRACK 13 AUDIO
    TITLE "12:cjc041_0536"
    INDEX 01 00:18:68
  TRACK 14 AUDIO
    TITLE "0:"
    INDEX 01 00:20:24
  TRACK 15 AUDIO
    TITLE "13:cjc041_0537"
    INDEX 01 00:21:04
  TRACK 16 AUDIO
    TITLE "0:"
    INDEX 01 00:21:72
  TRACK 17 AUDIO
    TITLE "14:cjc041_0538"
    INDEX 01 00:22:50
  TRACK 18 AUDIO
    TITLE "0:"
    INDEX 01 00:26:15
  TRACK 19 AUDIO
    TITLE "12:cjc041_0539"
    INDEX 01 00:26:67
  TRACK 20 AUDIO
    TITLE "0:"
    INDEX 01 00:28:33
  TRACK 21 AUDIO
    TITLE "13:cjc041_0540"
    INDEX 01 00:29:13
  TRACK 22 AUDIO
    TITLE "0:"
    INDEX 01 00:30:67
  TRACK 23 AUDIO
    TITLE "14:cjc041_0541"
    INDEX 01 00:31:43
  TRACK 24 AUDIO
    TITLE "0:"
    INDEX 01 00:36:25
  TRACK 25 AUDIO
    TITLE "12:cjc041_0542"
    INDEX 01 00:37:05
  TRACK 26 AUDIO
    TITLE "0:"
    INDEX 01 00:39:09
  TRACK 27 AUDIO
    TITLE "13:cjc041_0543"
    INDEX 01 00:39:60
  TRACK 28 AUDIO
    TITLE "0:"
    INDEX 01 00:42:72
  TRACK 29 AUDIO
    TITLE "14:cjc041_0544"
    INDEX 01 00:43:50
  TRACK 30 AUDIO
    TITLE "0:"
    INDEX 01 00:48:16
  TRACK 31 AUDIO
    TITLE "12:cjc041_0545"
    INDEX 01 00:48:67
  TRACK 32 AUDIO
    TITLE "0:"
    INDEX 01 00:50:37
  TRACK 33 AUDIO
    TITLE "13:cjc041_0546"
    INDEX 01 00:51:16
  TRACK 34 AUDIO
    TITLE "0:"
    INDEX 01 00:53:21
  TRACK 35 AUDIO
    TITLE "14:cjc041_0547"
    INDEX 01 00:54:03
  TRACK 36 AUDIO
    TITLE "0:"
    INDEX 01 00:56:72
  TRACK 37 AUDIO
    TITLE "12:cjc041_0548"
    INDEX 01 00:57:52
  TRACK 38 AUDIO
    TITLE "0:"
    INDEX 01 00:59:12
  TRACK 39 AUDIO
    TITLE "13:cjc041_0549"
    INDEX 01 00:59:69
  TRACK 40 AUDIO
    TITLE "0:"
    INDEX 01 01:01:72
  TRACK 41 AUDIO
    TITLE "14:cjc041_0550"
    INDEX 01 01:02:50
  TRACK 42 AUDIO
    TITLE "0:"
    INDEX 01 01:06:06
  TRACK 43 AUDIO
    TITLE "12:cjc041_0551"
    INDEX 01 01:06:67
  TRACK 44 AUDIO
    TITLE "0:"
    INDEX 01 01:08:35
  TRACK 45 AUDIO
    TITLE "13:cjc041_0552"
    INDEX 01 01:09:14
  TRACK 46 AUDIO
    TITLE "0:"
    INDEX 01 01:12:23
  TRACK 47 AUDIO
    TITLE "14:cjc041_0553"
    INDEX 01 01:13:00
  TRACK 48 AUDIO
    TITLE "0:"
    INDEX 01 01:16:54
  TRACK 49 AUDIO
    TITLE "12:cjc041_0554"
    INDEX 01 01:17:33
  TRACK 50 AUDIO
    TITLE "0:"
    INDEX 01 01:18:72
  TRACK 51 AUDIO
    TITLE "13:cjc041_0555"
    INDEX 01 01:19:50
  TRACK 52 AUDIO
    TITLE "0:"
    INDEX 01 01:21:21
  TRACK 53 AUDIO
    TITLE "14:cjc041_0556"
    INDEX 01 01:21:72
  TRACK 54 AUDIO
    TITLE "0:"
    INDEX 01 01:24:69
  TRACK 55 AUDIO
    TITLE "12:cjc041_0557"
    INDEX 01 01:25:51
  TRACK 56 AUDIO
    TITLE "0:"
    INDEX 01 01:27:04
  TRACK 57 AUDIO
    TITLE "13:cjc041_0558"
    INDEX 01 01:27:57
  TRACK 58 AUDIO
    TITLE "0:"
    INDEX 01 01:31:69
  TRACK 59 AUDIO
    TITLE "14:cjc041_0559"
    INDEX 01 01:32:43
  TRACK 60 AUDIO
    TITLE "0:"
    INDEX 01 01:35:49
  TRACK 61 AUDIO
    TITLE "12:cjc041_0560"
    INDEX 01 01:36:35
  TRACK 62 AUDIO
    TITLE "0:"
    INDEX 01 01:37:66
  TRACK 63 AUDIO
    TITLE "13:cjc041_0561"
    INDEX 01 01:38:42
  TRACK 64 AUDIO
    TITLE "0:"
    INDEX 01 01:42:57
  TRACK 65 AUDIO
    TITLE "14:cjc041_0562"
    INDEX 01 01:43:29
  TRACK 66 AUDIO
    TITLE "0:"
    INDEX 01 01:47:01
  TRACK 67 AUDIO
    TITLE "12:cjc041_0563"
    INDEX 01 01:47:54
  TRACK 68 AUDIO
    TITLE "0:"
    INDEX 01 01:48:69
  TRACK 69 AUDIO
    TITLE "13:cjc041_0564"
    INDEX 01 01:49:57
  TRACK 70 AUDIO
    TITLE "0:"
    INDEX 01 01:53:06
  TRACK 71 AUDIO
    TITLE "14:cjc041_0565"
    INDEX 01 01:53:63
  TRACK 72 AUDIO
    TITLE "0:"
    INDEX 01 01:57:66
  TRACK 73 AUDIO
    TITLE "12:cjc041_0566"
    INDEX 01 01:58:46
  TRACK 74 AUDIO
    TITLE "0:"
    INDEX 01 02:00:10
  TRACK 75 AUDIO
    TITLE "13:cjc041_0567"
    INDEX 01 02:00:65
  TRACK 76 AUDIO
    TITLE "0:"
    INDEX 01 02:02:34
  TRACK 77 AUDIO
    TITLE "14:cjc041_0568"
    INDEX 01 02:03:08
  TRACK 78 AUDIO
    TITLE "0:"
    INDEX 01 02:07:12
  TRACK 79 AUDIO
    TITLE "12:cjc041_0569"
    INDEX 01 02:07:67
  TRACK 80 AUDIO
    TITLE "0:"
    INDEX 01 02:10:34
  TRACK 81 AUDIO
    TITLE "13:cjc041_0570"
    INDEX 01 02:11:10
  TRACK 82 AUDIO
    TITLE "0:"
    INDEX 01 02:13:42
  TRACK 83 AUDIO
    TITLE "14:cjc041_0571"
    INDEX 01 02:14:22
  TRACK 84 AUDIO
    TITLE "0:"
    INDEX 01 02:17:24
  TRACK 85 AUDIO
    TITLE "12:cjc041_0572"
    INDEX 01 02:18:04
  TRACK 86 AUDIO
    TITLE "0:"
    INDEX 01 02:19:33
  TRACK 87 AUDIO
    TITLE "13:cjc041_0573"
    INDEX 01 02:20:12
  TRACK 88 AUDIO
    TITLE "0:"
    INDEX 01 02:21:63
  TRACK 89 AUDIO
    TITLE "14:cjc041_0574"
    INDEX 01 02:22:39
  TRACK 90 AUDIO
    TITLE "0:"
    INDEX 01 02:24:73
  TRACK 91 AUDIO
    TITLE "12:cjc041_0575"
    INDEX 01 02:25:53
  TRACK 92 AUDIO
    TITLE "0:"
    INDEX 01 02:26:72
  TRACK 93 AUDIO
    TITLE "13:cjc041_0576"
    INDEX 01 02:27:54
  TRACK 94 AUDIO
    TITLE "0:"
    INDEX 01 02:29:64
  TRACK 95 AUDIO
    TITLE "14:cjc041_0577"
    INDEX 01 02:30:46
  TRACK 96 AUDIO
    TITLE "0:"
    INDEX 01 02:33:19
